<svg id="Capa_1" enable-background="new 0 0 512 512" height="512" viewBox="0 0 512 512" width="512" xmlns="http://www.w3.org/2000/svg"><g><path d="m494.5 410.764h-1v-44.5c0-4.143-3.358-7.5-7.5-7.5s-7.5 3.357-7.5 7.5v44.5h-290c-4.142 0-7.5 3.357-7.5 7.5s3.358 7.5 7.5 7.5h306c1.378 0 2.5 1.121 2.5 2.5v3c0 12.406-10.093 22.5-22.5 22.5h-437c-12.407 0-22.5-10.094-22.5-22.5v-3c0-1.379 1.122-2.5 2.5-2.5h136c4.142 0 7.5-3.357 7.5-7.5s-3.358-7.5-7.5-7.5h-120v-158.5c0-4.143-3.358-7.5-7.5-7.5s-7.5 3.357-7.5 7.5v158.5h-1c-9.649 0-17.5 7.851-17.5 17.5v3c0 20.678 16.822 37.5 37.5 37.5h437c20.678 0 37.5-16.822 37.5-37.5v-3c0-9.65-7.851-17.5-17.5-17.5z"/><path d="m26 224.764c4.142 0 7.5-3.357 7.5-7.5v-51.5h77.691c6.592 18.913 24.593 32.527 45.725 32.527.103-.055 12.97-.054 13.583-.048v24.521h-35.563c-3.291-11.501-13.893-19.946-26.437-19.946-15.164 0-27.5 12.337-27.5 27.5s12.336 27.5 27.5 27.5c12.583 0 23.211-8.498 26.467-20.054h43.034c4.142 0 7.5-3.357 7.5-7.5v-32.021h25.5v77.021h-20.906c-3.104-11.783-13.849-20.5-26.594-20.5-15.164 0-27.5 12.337-27.5 27.5s12.336 27.5 27.5 27.5c12.382 0 22.875-8.227 26.31-19.5h28.69c4.142 0 7.5-3.357 7.5-7.5v-84.521h25v102.569c-11.528 3.274-20 13.889-20 26.452 0 15.163 12.336 27.5 27.5 27.5s27.5-12.337 27.5-27.5c0-12.563-8.472-23.178-20-26.452v-102.569h25v84.521c0 4.143 3.358 7.5 7.5 7.5h28.69c3.435 11.273 13.928 19.5 26.31 19.5 15.164 0 27.5-12.337 27.5-27.5s-12.336-27.5-27.5-27.5c-12.745 0-23.49 8.717-26.594 20.5h-20.906v-77.021h25v32.021c0 4.143 3.358 7.5 7.5 7.5h43.033c3.256 11.556 13.884 20.054 26.467 20.054 15.164 0 27.5-12.337 27.5-27.5s-12.336-27.5-27.5-27.5c-12.544 0-23.145 8.446-26.437 19.946h-35.563v-24.521c4.031.023 4.873-.054 9.083.048 21.132 0 39.133-13.614 45.725-32.527h77.692v165.5c0 4.143 3.358 7.5 7.5 7.5s7.5-3.357 7.5-7.5v-193c0-9.649-7.851-17.5-17.5-17.5h-82.258c-10.218-13.607-28.487-21.871-47.015-18.583-5.771-25.907-28.96-45.101-56.292-45.101-6.575 0-12.979 1.092-19.104 3.251-11.873-10.92-27.546-17.095-43.763-17.095-3.898 0-7.806.351-11.614 1.043-4.075.74-6.779 4.645-6.039 8.72.741 4.075 4.644 6.782 8.72 6.038 2.926-.531 5.931-.801 8.933-.801 13.801 0 27.091 5.827 36.464 15.986 2.201 2.386 5.688 3.084 8.64 1.732 5.605-2.571 11.582-3.875 17.764-3.875 22.503 0 41.21 17.579 42.589 40.021.146 2.382 1.417 4.552 3.423 5.844 2.006 1.294 4.508 1.554 6.736.704 3.809-1.453 7.813-2.19 11.9-2.19 18.426 0 33.417 14.991 33.417 33.417s-14.991 33.416-33.417 33.416c-2.318-.142-193.963.002-196.25-.048-18.66.818-35.407-13.867-35.333-33.368 0-18.426 14.991-33.417 33.417-33.417 3.817 0 7.571.645 11.158 1.914 2.369.839 5.004.435 7.014-1.077 2.009-1.512 3.127-3.932 2.976-6.441-.963-12.542 4.27-28.175 14.123-37.781 2.903-2.954 2.862-7.703-.092-10.606-2.955-2.902-7.702-2.86-10.606.093-10.541 10.726-16.903 24.507-18.254 39.311-15.882-2.577-35.768 5.695-44.977 18.895h-82.26c-9.649 0-17.5 7.851-17.5 17.5v79c0 4.14 3.358 7.498 7.5 7.498zm82.5 18.053c-6.893 0-12.5-5.607-12.5-12.5s5.607-12.5 12.5-12.5 12.5 5.607 12.5 12.5-5.607 12.5-12.5 12.5zm55 51.947c-6.893 0-12.5-5.607-12.5-12.5s5.607-12.5 12.5-12.5 12.5 5.607 12.5 12.5-5.607 12.5-12.5 12.5zm107.5 32.5c0 6.893-5.607 12.5-12.5 12.5s-12.5-5.607-12.5-12.5 5.607-12.5 12.5-12.5 12.5 5.607 12.5 12.5zm82.5-57.5c6.893 0 12.5 5.607 12.5 12.5s-5.607 12.5-12.5 12.5-12.5-5.607-12.5-12.5 5.607-12.5 12.5-12.5zm54.5-51.947c6.893 0 12.5 5.607 12.5 12.5s-5.607 12.5-12.5 12.5-12.5-5.607-12.5-12.5 5.607-12.5 12.5-12.5zm68-82.053c1.378 0 2.5 1.121 2.5 2.5v12.5h-75.023c.108-4.011-.472-9.408-2.081-15zm-440 0h74.603c-1 3.296-2.218 9.347-2.081 15h-75.022v-12.5c0-1.379 1.122-2.5 2.5-2.5z"/></g></svg>