<svg id="Capa_1" enable-background="new 0 0 512 512" height="512" viewBox="0 0 512 512" width="512" xmlns="http://www.w3.org/2000/svg"><g><path d="m432.836 151.661c-1.961-45.641-40.013-82.17-86.506-82.17-11.774 0-23.462 2.396-34.213 6.974-21.204-39.037-61.25-64.29-106.233-66.475-32.638-1.58-64.387 9.248-89.39 30.504-3.156 2.683-3.539 7.416-.856 10.572s7.416 3.539 10.572.856c22.088-18.778 50.123-28.349 78.947-26.95 41.961 2.038 79.05 26.795 96.792 64.61.875 1.864 2.478 3.287 4.432 3.934s4.09.463 5.903-.51c10.385-5.571 22.158-8.515 34.047-8.515 39.472 0 71.585 31.794 71.585 70.873 0 .897-.025 1.872-.082 3.158-.09 2.044.66 4.037 2.075 5.515 1.414 1.479 3.372 2.314 5.418 2.314.046 0 .106-.001.165-.002 39.436.042 71.508 31.819 71.508 70.872 0 .83-.015 1.655-.043 2.476-.545 15.706-7.293 30.386-19.002 41.335-11.698 10.94-27.016 16.964-43.13 16.964h-41.098v-56.043c0-4.104-3.298-7.445-7.4-7.499-22.268-.295-40.52-18.653-40.686-40.922-.031-4.12-3.38-7.444-7.5-7.444h-134.743c-4.12 0-7.469 3.324-7.5 7.444-.168 22.547-18.628 40.896-41.166 40.939-.05-.001-.1-.002-.142-.002-4.142 0-7.5 3.358-7.5 7.5v56.027h-69.915c-16.114 0-31.432-6.025-43.13-16.964-11.709-10.949-18.458-25.629-19.001-41.333-.028-.823-.043-1.648-.043-2.478 0-37.179 29.328-68.231 66.768-70.693 2.146-.141 4.128-1.197 5.443-2.898 1.314-1.702 1.836-3.886 1.431-5.998-1.363-7.108-2.034-14.379-1.994-21.612.126-22.923 7.313-44.96 20.784-63.727 2.416-3.365 1.646-8.051-1.719-10.466-3.364-2.416-8.051-1.646-10.466 1.719-15.295 21.308-23.456 46.34-23.599 72.391-.03 5.518.304 11.055.996 16.542-41.341 6.657-72.645 42.423-72.645 84.742 0 1.002.018 2 .052 2.996.683 19.704 9.116 38.09 23.747 51.772 14.487 13.547 33.443 21.008 53.375 21.008h69.916v7.942c0 4.142 3.358 7.5 7.5 7.5s7.5-3.358 7.5-7.5v-71.961c24.871-3.32 44.747-23.045 48.257-47.89h120.837c1.672 11.986 7.15 23.074 15.82 31.791 8.676 8.721 19.739 14.26 31.723 15.994v101.3c0 35.667-10.782 66.977-63.402 103.853l-44.916 31.477-44.917-31.477c-38.056-26.67-63.402-54.537-63.402-103.853 0-4.142-3.358-7.5-7.5-7.5s-7.5 3.358-7.5 7.5v.765c0 .071.001.142.003.212.154 25.424 6.329 47.111 18.867 66.271 11.033 16.861 26.739 31.939 50.924 48.888l49.221 34.494c1.292.905 2.799 1.358 4.305 1.358s3.013-.453 4.305-1.358l49.221-34.494c24.185-16.949 39.891-32.027 50.923-48.888 12.698-19.405 18.87-41.402 18.87-67.249v-37.177h41.098c19.932 0 38.888-7.461 53.375-21.008 14.631-13.681 23.064-32.067 23.747-51.774.034-.994.053-1.991.053-2.994-.002-44.868-34.884-81.812-79.166-85.558z"/><path d="m270.742 242.098c-22.473 0-40.756 18.283-40.756 40.756v31.025c-9.05 3.879-15.407 12.874-15.407 23.329v47.576c0 13.989 11.38 25.369 25.369 25.369h60.924c13.988 0 25.369-11.38 25.369-25.369v-47.576c0-10.195-6.049-19-14.743-23.028v-31.326c0-22.473-18.284-40.756-40.756-40.756zm0 15c14.202 0 25.756 11.554 25.756 25.756v28.984h-51.512v-28.984c-.001-14.202 11.554-25.756 25.756-25.756zm40.499 127.685c0 5.718-4.651 10.369-10.369 10.369h-60.924c-5.718 0-10.369-4.651-10.369-10.369v-47.576c0-5.718 4.651-10.369 10.369-10.369h60.924c5.718 0 10.369 4.651 10.369 10.369z"/><path d="m270.742 344.555c-4.143 0-7.5 3.358-7.5 7.5v15.972c0 4.142 3.357 7.5 7.5 7.5s7.5-3.358 7.5-7.5v-15.972c0-4.142-3.358-7.5-7.5-7.5z"/></g></svg>