<svg id="Capa_1" enable-background="new 0 0 512 512" height="512" viewBox="0 0 512 512" width="512" xmlns="http://www.w3.org/2000/svg"><g><path d="m261.782 379.333c-.001 0-.002-.001-.003-.002l-53.647-39.551c-5.191-3.841-11.345-5.87-17.797-5.87-4.577 0-9.174 1.069-13.313 3.101-4.333 2.137-7.986 5.201-10.846 9.096-4.76 6.455-6.719 14.373-5.518 22.291.258 1.703.655 3.364 1.184 4.969-3.483-.022-17.889-.124-21.917-.156v-103.562c0-16.542-13.458-30-30-30s-30 13.458-30 30v133.301c0 7.963 3.08 15.461 8.671 21.113 5.58 5.64 13.039 8.795 21.005 8.886.038.001.076.001.114.001h.029c8.037.079 26.798.255 51.076.41-.345 1.159-.622 2.346-.828 3.555-1.365 7.885.435 15.839 5.075 22.408 5.623 7.932 14.785 12.667 24.508 12.667 6.219 0 12.201-1.902 17.307-5.508l54.419-38.509c7.831-5.54 12.569-14.581 12.674-24.201.088-9.603-4.47-18.74-12.193-24.439zm-12.034 32.313-54.412 38.504c-1.705 1.204-3.697 1.84-5.762 1.84-3.25 0-6.312-1.583-8.182-4.22-1.545-2.187-2.146-4.831-1.69-7.468.449-2.632 1.895-4.927 4.081-6.472l3.097-2.191c3.546-2.512 5.065-7.025 3.759-11.17-1.307-4.144-5.141-6.97-9.486-6.992-33.839-.173-71.372-.527-71.372-.527-2.651-.042-5.124-1.09-6.967-2.953-1.863-1.883-2.889-4.386-2.889-7.047v-133.301c0-5.514 4.486-10 10-10s10 4.486 10 10v113.48c0 5.491 4.428 9.955 9.918 10 0 0 41.538.299 53.269.356h.05c4.308 0 8.135-2.761 9.492-6.854 1.362-4.109-.075-8.628-3.559-11.196l-4.64-3.421c-.019-.014-.015-.012-.007-.006-2.171-1.606-3.609-3.928-4.015-6.61-.399-2.635.254-5.272 1.853-7.439.965-1.313 2.136-2.299 3.566-3.003 1.395-.685 2.946-1.047 4.485-1.047 2.138 0 4.179.674 5.916 1.958l53.66 39.561c2.575 1.902 4.094 4.951 4.064 8.142-.038 3.209-1.618 6.229-4.229 8.076z"/><path d="m250.069 131.968 53.663 39.572c5.192 3.827 11.342 5.85 17.782 5.85 4.607 0 9.214-1.074 13.324-3.107 4.334-2.144 7.983-5.206 10.836-9.089 4.758-6.453 6.717-14.37 5.52-22.274-.255-1.709-.652-3.375-1.182-4.985 3.48.022 20.22.143 21.913.155v103.57c0 16.542 13.458 30 30 30s30-13.458 30-30v-133.31c0-7.966-3.078-15.458-8.667-21.099-5.576-5.648-13.037-8.81-21.009-8.9-.038-.001-.076-.001-.114-.001l-.011.001c-6.197-.062-25.405-.244-51.096-.406.347-1.164.626-2.356.834-3.572 1.348-7.897-.453-15.846-5.079-22.396-5.623-7.932-14.785-12.667-24.509-12.667-6.229 0-12.216 1.909-17.307 5.518l-54.408 38.502c-7.838 5.529-12.58 14.573-12.684 24.206-.091 9.598 4.467 18.732 12.194 24.432zm12.031-32.305 54.426-38.515c1.721-1.22 3.655-1.839 5.747-1.839 6.086-.001 10.894 5.713 9.875 11.692-1.403 8.233-14.072 9.88-10.935 19.834 1.307 4.145 5.141 6.971 9.487 6.993 35.538.179 63.5.443 71.324.521h.044c2.65.042 5.119 1.09 6.978 2.974 1.856 1.871 2.879 4.366 2.879 7.026v133.311c0 5.514-4.486 10-10 10s-10-4.486-10-10v-113.49c0-5.488-4.423-9.95-9.91-10-4.741-.042-41.539-.298-53.275-.354-.017 0-.032 0-.049 0-4.308 0-8.135 2.761-9.492 6.854-1.362 4.108.074 8.627 3.558 11.195 3.654 2.696 7.931 5.161 8.66 10.033.399 2.638-.254 5.275-1.851 7.441-3.219 4.367-9.586 5.332-13.967 2.104l-53.658-39.569c-2.577-1.901-4.098-4.947-4.067-8.135.035-3.215 1.61-6.23 4.226-8.076z"/><path d="m208.29 208.279c7.55-7.55 11.71-17.59 11.71-28.279v-140c0-10.69-4.16-20.73-11.71-28.28-7.55-7.561-17.6-11.72-28.29-11.72h-140c-10.68 0-20.73 4.159-28.28 11.72-7.55 7.55-11.71 17.59-11.72 28.28v140c.01 10.689 4.17 20.729 11.72 28.279 7.55 7.561 17.6 11.721 28.28 11.721h140c10.69 0 20.74-4.16 28.29-11.721zm-188.29-28.279v-140c.02-11.011 9-19.98 20-20h140c11.01.02 19.99 8.989 20.01 20v140c-.02 11.01-9 19.979-20.01 20h-140c-11-.021-19.98-8.99-20-20z"/><path d="m496.6 345.85c-10.37-17.51-25.42-31.79-43.52-41.29-7.99-4.18-16.44-7.38-25.14-9.5-8.45-2.06-17.14-3.1-25.84-3.1h-.08c-19.73 0-39.16 5.33-56.18 15.41-17.5 10.37-31.77 25.42-41.27 43.52-4.19 7.98-7.39 16.45-9.51 25.15-2.05 8.45-3.1 17.15-3.1 25.85 0 19.75 5.32 39.19 15.41 56.221 10.37 17.51 25.42 31.779 43.52 41.279 7.99 4.19 16.45 7.391 25.14 9.511 8.45 2.05 17.15 3.1 25.85 3.1h.02c12.18 0 24.2-2.01 35.75-5.97 2.53-.86 4.57-2.66 5.74-5.061 1.18-2.399 1.35-5.109.48-7.64-1.39-4.04-5.19-6.76-9.46-6.76-1.1 0-2.19.18-3.24.54-9.46 3.25-19.31 4.89-29.27 4.89-14.63 0-28.67-3.479-41.72-10.32-29.72-15.58-48.2-46.159-48.22-79.79.01-14.63 3.48-28.659 10.32-41.71 15.59-29.729 46.16-48.21 79.79-48.22 14.63 0 28.67 3.47 41.72 10.32 29.72 15.58 48.2 46.149 48.21 79.779 0 10.24-1.74 20.33-5.17 29.98-.9 2.52-.76 5.24.38 7.65 1.15 2.409 3.17 4.229 5.68 5.13 1.09.39 2.22.58 3.36.58 4.22 0 8-2.67 9.42-6.65 4.2-11.81 6.33-24.15 6.33-36.69.01-19.739-5.31-39.179-15.4-56.209z"/><circle cx="472.337" cy="473.08" r="10"/></g></svg>