<svg height="512pt" viewBox="0 -39 512.001 512" width="512pt" xmlns="http://www.w3.org/2000/svg"><path d="m247.1875 322.222656-30.582031-29.03125c-3.003907-2.855468-3.125-7.601562-.273438-10.605468 2.851563-3.003907 7.597657-3.125 10.601563-.273438l24.101562 22.882812 43.558594-65.742187c2.289062-3.453125 6.945312-4.398437 10.394531-2.109375 3.453125 2.285156 4.398438 6.941406 2.109375 10.394531 0 0-48.464844 73.148438-48.492187 73.191407-2.488281 3.75-8.128907 4.453124-11.417969 1.292968zm0 0"/><path d="m252.21875 433.390625c-111.265625-51.972656-131.632812-164.992187-135.148438-198.570313-.808593-7.757812 3.453126-15.027343 10.605469-18.085937 21.875-9.355469 36.597657-29.910156 38.425781-53.644531.585938-7.648438 6.792969-13.453125 14.429688-13.5l149.269531-.875h.082031c7.488282 0 13.847657 5.796875 14.496094 13.238281 2.070313 23.722656 17.015625 44.132813 38.996094 53.257813 7.226562 2.996093 11.597656 10.226562 10.878906 17.988281-3.121094 33.617187-22.132812 146.941406-132.808594 200.140625-2.652343 1.273437-6.570312 1.292968-9.226562.050781zm-71.191406-268.804687c-2.375 29.179687-20.53125 54.425781-47.453125 65.941406-1.070313.457031-1.707031 1.554687-1.585938 2.730468 3.285157 31.410157 21.972657 137.191407 124.757813 185.695313 102.199218-49.703125 119.652344-155.695313 122.570312-187.140625.109375-1.179688-.570312-2.285156-1.691406-2.753906-27.023438-11.214844-45.4375-36.226563-48.148438-65.34375zm0 0"/><path d="m250.71875 402.609375c-33.546875-18.339844-60.359375-44.867187-79.230469-79.707031-15.65625-28.90625-22.566406-57.21875-25.609375-75.878906-.824218-5.0625 1.472656-10.042969 5.855469-12.6875 18.042969-10.886719 31.097656-28.054688 36.761719-48.34375 1.488281-5.339844 6.398437-9.09375 11.929687-9.125l109.796875-.644532c5.554688.003906 10.484375 3.660156 12.039063 8.984375 5.902343 20.21875 19.15625 37.234375 37.328125 47.910157 4.410156 2.59375 6.765625 7.542968 6 12.613281-2.820313 18.695312-9.398438 47.082031-24.71875 76.175781-18.460938 35.058594-44.960938 61.898438-78.285156 80.632812-3.167969 1.78125-7.710938 2.34375-11.867188.070313zm-89.757812-156.339844c2.988281 17.511719 9.515624 43.269531 23.714843 69.492188 17.21875 31.789062 41.402344 56.328125 71.890625 72.960937 30.292969-16.992187 54.1875-41.816406 71.03125-73.804687 13.894532-26.390625 20.117188-52.21875 22.898438-69.757813-20.171875-12.335937-35.027344-31.375-42.085938-53.925781l-106 .621094c-6.789062 22.628906-21.421875 41.84375-41.449218 54.414062zm0 0"/><path d="m429.816406 333.757812h-35.421875c-4.144531 0-7.5-3.355468-7.5-7.5 0-4.140624 3.355469-7.5 7.5-7.5h35.421875c37.046875 0 67.183594-30.136718 67.183594-67.183593 0-37.042969-30.136719-67.414063-67.183594-67.183594-8.566406.054687-9.316406-5.570313-9.394531-17.511719-.53125-83.742187-68.132813-151.878906-151.875-151.878906-61.148437 0-118.484375 38.964844-141.097656 95.574219-1.171875 2.933593-4.367188 4.621093-10.671875 4.625-56.121094.035156-101.777344 45.660156-101.777344 101.777343 0 56.121094 45.65625 101.78125 101.777344 101.78125 4.144531 0 7.5 3.359376 7.5 7.5 0 4.140626-3.355469 7.5-7.5 7.5-64.390625 0-116.777344-52.386718-116.777344-116.78125 0-63.972656 51.707031-116.097656 115.527344-116.769531 35.972656-86.511719 118.992187-100.207031 153.019531-100.207031 92.015625 0 166.878906 74.863281 166.878906 166.878906 0 .898438-.011719 1.796875-.023437 2.699219 42.722656 2.878906 76.597656 38.554687 76.597656 81.996094 0 45.316406-36.867188 82.183593-82.183594 82.183593zm0 0"/></svg>